HIERARCHY
ROOT Hips
{
	OFFSET 0.000000 0.000000 0.000000
	CHANNELS 6 Xposition Yposition Zposition Xrotation Yrotation Zrotation
	JOINT LeftUpLeg_virtual
	{
		OFFSET 0.000000 0.000000 0.000000
		CHANNELS 3 Xrotation Yrotation Zrotation
		JOINT LeftUpLeg
		{
			OFFSET 15.427100 -6.655098 0.678600
			CHANNELS 3 Xrotation Yrotation Zrotation
			JOINT LeftLeg
			{
				OFFSET 4.081073 -39.591068 13.024000
				CHANNELS 3 Xrotation Yrotation Zrotation
				JOINT LeftFoot
				{
					OFFSET -4.081074 -37.707932 -15.979700
					CHANNELS 3 Xrotation Yrotation Zrotation
					JOINT LeftToeBase
					{
						OFFSET 5.346399 -15.068900 20.645000
						CHANNELS 3 Xrotation Yrotation Zrotation
						JOINT LeftToe_End
						{
							OFFSET 2.754700 0.931300 11.300900
							CHANNELS 3 Xrotation Yrotation Zrotation
							End Site
							{
								OFFSET 0 0 0
							}
						}
					}
				}
			}
		}
	}
	JOINT RightUpLeg_virtual
	{
		OFFSET 0.000000 0.000000 0.000000
		CHANNELS 3 Xrotation Yrotation Zrotation
		JOINT RightUpLeg
		{
			OFFSET -15.569500 -6.655098 0.678600
			CHANNELS 3 Xrotation Yrotation Zrotation
			JOINT RightLeg
			{
				OFFSET -4.081825 -39.591045 13.023800
				CHANNELS 3 Xrotation Yrotation Zrotation
				JOINT RightFoot
				{
					OFFSET 4.081824 -37.707954 -15.979600
					CHANNELS 3 Xrotation Yrotation Zrotation
					JOINT RightToeBase
					{
						OFFSET -5.346400 -15.068900 20.645000
						CHANNELS 3 Xrotation Yrotation Zrotation
						JOINT RightToe_End
						{
							OFFSET -2.754700 0.931300 11.300900
							CHANNELS 3 Xrotation Yrotation Zrotation
							End Site
							{
								OFFSET 0 0 0
							}
						}
					}
				}
			}
		}
	}
	JOINT Spine_virtual
	{
		OFFSET 0.000000 0.000000 0.000000
		CHANNELS 3 Xrotation Yrotation Zrotation
		JOINT Spine
		{
			OFFSET -0.279200 12.230698 -2.892100
			CHANNELS 3 Xrotation Yrotation Zrotation
			JOINT Spine1
			{
				OFFSET -0.232667 10.192268 -1.242267
				CHANNELS 3 Xrotation Yrotation Zrotation
				JOINT Spine1_split
				{
					OFFSET -0.232667 10.192268 -1.242267
					CHANNELS 3 Xrotation Yrotation Zrotation
					JOINT Spine2
					{
						OFFSET -0.232667 10.192268 -1.242267
						CHANNELS 3 Xrotation Yrotation Zrotation
						JOINT Neck_virtual
						{
							OFFSET 0.000000 0.000000 0.000000
							CHANNELS 3 Xrotation Yrotation Zrotation
							JOINT Neck
							{
								OFFSET -0.418800 17.814194 8.416900
								CHANNELS 3 Xrotation Yrotation Zrotation
								JOINT Head
								{
									OFFSET 0.000000 7.031097 3.806800
									CHANNELS 3 Xrotation Yrotation Zrotation
									JOINT HeadTop_End
									{
										OFFSET 0.000000 24.646606 12.978600
										CHANNELS 3 Xrotation Yrotation Zrotation
										End Site
										{
											OFFSET 0 0 0
										}
									}
								}
							}
						}
						JOINT LeftShoulder_virtual
						{
							OFFSET 0.000000 0.000000 0.000000
							CHANNELS 3 Xrotation Yrotation Zrotation
							JOINT LeftShoulder
							{
								OFFSET 8.476499 7.247704 -3.868750
								CHANNELS 3 Xrotation Yrotation Zrotation
								JOINT LeftShoulder_split
								{
									OFFSET 8.476499 7.247704 -3.868750
									CHANNELS 3 Xrotation Yrotation Zrotation
									JOINT LeftArm
									{
										OFFSET 9.308998 -2.777710 0.208600
										CHANNELS 3 Xrotation Yrotation Zrotation
										JOINT LeftForeArm
										{
											OFFSET 29.972298 0.000000 0.000000
											CHANNELS 3 Xrotation Yrotation Zrotation
											JOINT LeftHand
											{
												OFFSET 26.026505 0.000000 0.000000
												CHANNELS 3 Xrotation Yrotation Zrotation
												End Site
												{
													OFFSET 0 0 0
												}
											}
										}
									}
								}
							}
						}
						JOINT RightShoulder_virtual
						{
							OFFSET 0.000000 0.000000 0.000000
							CHANNELS 3 Xrotation Yrotation Zrotation
							JOINT RightShoulder
							{
								OFFSET -7.570500 7.247704 -3.868750
								CHANNELS 3 Xrotation Yrotation Zrotation
								JOINT RightShoulder_split
								{
									OFFSET -7.570500 7.247704 -3.868750
									CHANNELS 3 Xrotation Yrotation Zrotation
									JOINT RightArm
									{
										OFFSET -9.308998 -2.777710 0.208500
										CHANNELS 3 Xrotation Yrotation Zrotation
										JOINT RightForeArm
										{
											OFFSET -29.972300 0.000000 0.000000
											CHANNELS 3 Xrotation Yrotation Zrotation
											JOINT RightHand
											{
												OFFSET -26.026505 0.000000 0.000000
												CHANNELS 3 Xrotation Yrotation Zrotation
												End Site
												{
													OFFSET 0 0 0
												}
											}
										}
									}
								}
							}
						}
					}
				}
			}
		}
	}
}
MOTION
Frames: 11
Frame Time: 0.03333333
55.919827 85.130966 26.043503 0.000000 0.000000 0.000000 -10.735351 -56.790287 -11.380509 -10.868872 12.854679 5.642243 41.781865 -10.506119 1.311916 -26.601773 15.219670 4.187496 -3.382242 -0.000035 -0.000004 0.000000 0.000000 0.000000 -10.735351 -56.790287 -11.380509 -15.046031 18.208282 -17.268656 48.143650 -4.797634 -8.425131 23.169175 -1.093750 28.226221 -18.971993 -2.594001 17.138468 0.000000 0.000000 0.000000 -10.735351 -56.790287 -11.380509 9.624783 7.916257 -0.207967 2.662956 17.145947 -2.401210 0.000000 0.000000 0.000000 0.000000 0.000000 0.000000 3.209017 13.582537 -1.840704 -0.835034 -4.107088 0.327522 1.616703 -45.330149 4.399502 0.000000 0.000000 0.000000 3.209017 13.582537 -1.840704 -6.690963 -24.917022 -29.325745 0.000000 0.000000 0.000000 -17.150504 26.242820 -47.937727 -0.000004 -37.261387 -0.000003 0.000000 0.000000 0.000000 3.209017 13.582537 -1.840704 16.288804 -29.166718 21.993790 0.000000 0.000000 0.000000 17.892152 -24.268789 42.118741 -179.999937 66.114537 179.999950 0.000000 0.000000 0.000000 
55.377674 84.584717 28.147945 0.000000 0.000000 0.000000 -11.426170 -54.629533 -11.420367 -9.005589 12.875011 3.690153 42.563861 -10.794206 1.799723 -28.340950 14.013470 5.611765 -3.339839 0.000018 0.000004 0.000000 0.000000 0.000000 -11.426170 -54.629533 -11.420367 -19.127222 20.381757 -12.454459 53.230147 -3.930335 -7.564224 21.226397 7.229308 19.737894 -30.343242 -7.201658 14.399688 0.000000 0.000000 0.000000 -11.426170 -54.629533 -11.420367 10.450110 5.610872 -0.599676 2.886332 16.500533 -2.402979 0.000000 0.000000 0.000000 0.000000 0.000000 0.000000 3.439223 13.460947 -1.993053 -0.825260 -4.058136 0.451981 1.734942 -45.565227 4.903149 0.000000 0.000000 0.000000 3.439223 13.460947 -1.993053 -7.018225 -26.326413 -29.169300 0.000000 0.000000 0.000000 -18.434954 23.003975 -47.374014 0.000002 -36.923262 0.000007 0.000000 0.000000 0.000000 3.439223 13.460947 -1.993053 16.511894 -29.414708 22.476725 0.000000 0.000000 0.000000 18.832085 -26.862731 43.040505 -179.999991 65.978678 179.999964 0.000000 0.000000 0.000000 
54.904602 84.503815 30.739670 0.000000 0.000000 0.000000 -11.011430 -51.452959 -10.971683 -7.359786 12.847434 2.471778 42.512453 -10.670491 1.934138 -29.423909 11.054683 6.876475 -3.162133 -0.000013 0.000001 0.000000 0.000000 0.000000 -11.011430 -51.452959 -10.971683 -23.473642 21.195091 -7.892272 57.776434 -4.979920 -6.374630 16.706259 15.417958 15.493695 -32.877840 -3.778444 7.022387 0.000000 0.000000 0.000000 -11.011430 -51.452959 -10.971683 10.814773 2.619376 -0.339962 3.054876 15.663586 -2.352308 0.000000 0.000000 0.000000 0.000000 0.000000 0.000000 3.615014 13.134277 -2.081373 -0.759836 -3.950819 0.589089 2.105232 -45.390015 5.394821 0.000000 0.000000 0.000000 3.615014 13.134277 -2.081373 -7.328470 -28.082427 -28.771096 0.000000 0.000000 0.000000 -18.947621 20.246115 -47.384492 0.000011 -37.580288 0.000005 0.000000 0.000000 0.000000 3.615014 13.134277 -2.081373 16.552038 -29.563016 22.660659 0.000000 0.000000 0.000000 19.613151 -28.573956 43.849709 179.999991 66.371503 -179.999978 0.000000 0.000000 0.000000 
54.482727 84.863350 33.742065 0.000000 0.000000 0.000000 -9.910786 -47.834021 -10.122764 -5.560498 12.736027 1.659905 41.306693 -10.568528 1.541295 -29.829157 7.334004 7.987940 -2.895721 -0.000014 0.000000 0.000000 0.000000 0.000000 -9.910786 -47.834021 -10.122764 -27.454068 21.177705 -4.318701 59.334208 -6.415073 -4.926417 12.477278 20.570967 14.937228 -29.538287 -0.355720 0.782779 0.000000 0.000000 0.000000 -9.910786 -47.834021 -10.122764 10.884677 -0.633642 0.188603 3.195169 14.763917 -2.286728 0.000000 0.000000 0.000000 0.000000 0.000000 0.000000 3.762185 12.720731 -2.143569 -0.710406 -3.835618 0.741273 2.753902 -45.097745 5.846702 0.000000 0.000000 0.000000 3.762185 12.720731 -2.143569 -7.598352 -30.007692 -28.209166 0.000000 0.000000 0.000000 -18.872552 17.780963 -47.791616 -0.000004 -39.372735 -0.000016 0.000000 0.000000 0.000000 3.762185 12.720731 -2.143569 16.551876 -29.456601 22.826197 0.000000 0.000000 0.000000 19.255355 -29.305073 43.890915 -179.999950 67.122250 179.999950 0.000000 0.000000 0.000000 
54.100479 85.495125 36.998096 0.000000 0.000000 0.000000 -8.656836 -44.490476 -9.268588 -3.337996 12.838818 1.451278 38.885268 -10.583214 0.284568 -29.762734 3.207331 8.904969 -2.702492 0.000002 -0.000000 0.000000 0.000000 0.000000 -8.656836 -44.490476 -9.268588 -30.955421 20.916804 -1.592534 57.567867 -7.687844 -3.517659 9.314290 20.848258 15.645894 -22.592627 0.472065 -1.479517 0.000000 0.000000 0.000000 -8.656836 -44.490476 -9.268588 10.887298 -3.564328 0.819967 3.318395 13.964346 -2.238367 0.000000 0.000000 0.000000 0.000000 0.000000 0.000000 3.892210 12.370902 -2.214525 -0.705426 -3.750113 0.901800 3.456259 -44.903508 6.310448 0.000000 0.000000 0.000000 3.892210 12.370902 -2.214525 -7.768324 -31.874287 -27.459048 0.000000 0.000000 0.000000 -18.730530 15.025871 -48.431707 0.000016 -41.619689 0.000017 0.000000 0.000000 0.000000 3.892210 12.370902 -2.214525 16.623582 -29.172496 23.168917 0.000000 0.000000 0.000000 16.707746 -28.816162 42.936929 -179.999896 68.118078 179.999909 0.000000 0.000000 0.000000 
53.803188 85.966873 40.304203 0.000000 0.000000 0.000000 -7.231636 -41.449310 -8.374265 -1.239605 13.321078 1.920639 36.305399 -10.602229 -1.820721 -29.604147 -1.505891 10.009179 -2.676872 0.000000 0.000002 0.000000 0.000000 0.000000 -7.231636 -41.449310 -8.374265 -34.207896 20.340525 0.496110 53.294832 -8.336873 -2.073539 8.128740 17.712871 15.758556 -15.293721 0.310494 -1.602492 0.000000 0.000000 0.000000 -7.231636 -41.449310 -8.374265 10.827465 -6.202274 1.421725 3.383852 13.256652 -2.218391 0.000000 0.000000 0.000000 0.000000 0.000000 0.000000 3.964101 12.066099 -2.304479 -0.706751 -3.686935 1.097582 4.077663 -44.804808 6.876756 0.000000 0.000000 0.000000 3.964101 12.066099 -2.304479 -7.841346 -33.725101 -26.533866 0.000000 0.000000 0.000000 -18.654135 12.292855 -49.030793 -0.000010 -44.714995 -0.000023 0.000000 0.000000 0.000000 3.964101 12.066099 -2.304479 16.751493 -28.858222 23.642872 0.000000 0.000000 0.000000 12.560957 -26.854694 41.389550 179.999991 69.256861 179.999991 0.000000 0.000000 0.000000 
53.644207 86.278664 43.443680 0.000000 0.000000 0.000000 -5.718029 -38.213498 -7.521164 0.037855 13.819974 2.188933 34.751562 -10.511061 -2.966851 -29.237390 -6.008963 10.959571 -2.736979 -0.000013 -0.000001 0.000000 0.000000 0.000000 -5.718029 -38.213498 -7.521164 -36.609964 19.488978 1.404631 46.692430 -8.795804 -0.503592 8.839189 12.335644 16.522320 -7.860950 0.155165 -2.276100 0.000000 0.000000 0.000000 -5.718029 -38.213498 -7.521164 10.865767 -8.852629 2.109104 3.444224 12.537726 -2.259613 0.000000 0.000000 0.000000 0.000000 0.000000 0.000000 4.029721 11.694921 -2.441234 -0.743694 -3.647988 1.351183 4.648058 -44.908873 7.778122 0.000000 0.000000 0.000000 4.029721 11.694921 -2.441234 -7.832298 -35.558795 -25.497665 0.000000 0.000000 0.000000 -18.948179 9.414043 -49.313204 0.000010 -48.086676 0.000016 0.000000 0.000000 0.000000 4.029721 11.694921 -2.441234 17.066339 -28.807399 24.438147 0.000000 0.000000 0.000000 7.944119 -23.503144 39.614595 -179.999991 71.306410 -179.999991 0.000000 0.000000 0.000000 
53.565979 86.687523 46.219551 0.000000 0.000000 0.000000 -4.274684 -34.964893 -6.909734 0.908919 13.740980 2.363191 33.420819 -10.265570 -3.511156 -28.828852 -9.848455 11.988641 -2.790707 -0.000029 -0.000005 0.000000 0.000000 0.000000 -4.274684 -34.964893 -6.909734 -38.176762 18.488625 1.692333 37.877562 -9.304489 0.856170 11.007833 5.302272 17.564212 -3.963954 0.000000 0.000000 0.000000 0.000000 0.000000 -4.274684 -34.964893 -6.909734 11.066122 -11.228951 3.026650 3.554176 11.869947 -2.370830 0.000000 0.000000 0.000000 0.000000 0.000000 0.000000 4.145768 11.312878 -2.631263 -0.838937 -3.661515 1.637051 5.256702 -45.375143 9.072293 0.000000 0.000000 0.000000 4.145768 11.312878 -2.631263 -7.821837 -37.400811 -24.562089 0.000000 0.000000 0.000000 -19.794595 6.109703 -49.192351 -0.000029 -50.912937 -0.000039 0.000000 0.000000 0.000000 4.145768 11.312878 -2.631263 17.517106 -29.061543 25.458509 0.000000 0.000000 0.000000 4.338404 -20.380275 38.911492 179.999978 74.295765 -179.999978 0.000000 0.000000 0.000000 
53.340614 87.189194 48.456936 0.000000 0.000000 0.000000 -2.837680 -32.486367 -6.554109 1.344986 13.112865 2.623831 32.288261 -9.847108 -3.654491 -28.576188 -12.319100 12.886102 -2.852852 0.000016 0.000000 0.000000 0.000000 0.000000 -2.837680 -32.486367 -6.554109 -39.452696 17.347815 1.838950 27.665866 -9.851563 2.176901 12.513768 -1.378549 19.238708 -3.644881 0.000002 0.000000 0.000000 0.000000 0.000000 -2.837680 -32.486367 -6.554109 11.162640 -12.808405 4.129189 3.665548 11.395338 -2.486490 0.000000 0.000000 0.000000 0.000000 0.000000 0.000000 4.264212 11.053673 -2.808294 -0.916058 -3.715330 1.878026 5.808081 -46.064817 10.311526 0.000000 0.000000 0.000000 4.264212 11.053673 -2.808294 -7.900125 -39.101665 -23.993278 0.000000 0.000000 0.000000 -21.078862 2.579740 -48.985348 -0.000008 -53.042727 -0.000010 0.000000 0.000000 0.000000 4.264212 11.053673 -2.808294 17.584021 -29.177947 25.863083 0.000000 0.000000 0.000000 3.334554 -18.864170 39.953564 -179.999937 77.096143 179.999923 0.000000 0.000000 0.000000 
52.837181 87.877083 50.210320 0.000000 0.000000 0.000000 -1.381890 -31.135424 -6.175095 1.607932 12.401856 2.949231 30.965431 -9.240751 -3.775857 -28.135364 -13.578713 13.524949 -3.131579 0.000004 0.000004 0.000000 0.000000 0.000000 -1.381890 -31.135424 -6.175095 -40.044614 16.114129 1.593763 16.723839 -10.368284 3.650922 13.027738 -8.521172 22.499290 -3.673364 -0.000012 -0.000005 0.000000 0.000000 0.000000 -1.381890 -31.135424 -6.175095 10.881668 -13.560395 5.056173 3.729315 11.118886 -2.575002 0.000000 0.000000 0.000000 0.000000 0.000000 0.000000 4.331989 10.910390 -2.940584 -0.903519 -3.767703 2.041599 6.217779 -46.710151 11.099706 0.000000 0.000000 0.000000 4.331989 10.910390 -2.940584 -7.862964 -40.322677 -23.372335 0.000000 0.000000 0.000000 -22.571378 -0.794352 -49.513407 0.000011 -54.600478 0.000023 0.000000 0.000000 0.000000 4.331989 10.910390 -2.940584 17.520349 -29.225239 26.065566 0.000000 0.000000 0.000000 3.029842 -17.732862 41.542563 179.999991 79.997238 -179.999978 0.000000 0.000000 0.000000 
51.690105 87.670128 52.097477 0.000000 0.000000 0.000000 -0.012121 -30.371601 -5.281919 1.819880 11.891987 3.104910 31.139358 -8.687838 -4.038162 -28.709385 -14.417857 13.983255 -4.449164 -0.000001 -0.000003 0.000000 0.000000 0.000000 -0.012121 -30.371601 -5.281919 -43.136596 15.197278 2.724994 12.095280 -10.561663 4.017218 9.918832 -17.676132 20.446072 -3.994160 0.000002 0.000000 0.000000 0.000000 0.000000 -0.012121 -30.371601 -5.281919 9.944843 -14.099584 5.415109 3.802971 10.944126 -2.716843 0.000000 0.000000 0.000000 0.000000 0.000000 0.000000 4.402991 10.774508 -3.108199 -0.782086 -3.817451 2.169771 6.713343 -47.237865 11.489311 0.000000 0.000000 0.000000 4.402991 10.774508 -3.108199 -7.509761 -40.992118 -22.233043 0.000000 0.000000 0.000000 -23.834763 -3.554317 -50.989671 -0.000020 -56.400861 -0.000021 0.000000 0.000000 0.000000 4.402991 10.774508 -3.108199 17.330125 -29.254633 26.060522 0.000000 0.000000 0.000000 3.538284 -17.276970 43.501010 179.999923 82.501841 -179.999923 0.000000 0.000000 0.000000 
